name C:\Users\u0101727\Documents\MyRepositories\upper-imu-dc\Results\main_tracking\Case_59\kinematics.mot
datacolumns 10
datarows 18
range 3.00000000 3.17000000
endheader 
time	clav_prot	clav_elev	scapula_abduction	scapula_elevation	scapula_upward_rot	scapula_winging	plane_elv	shoulder_elv	axial_rot	
          3.00000000	        -15.46447682	         16.35368140	         -8.21903076	         12.04355881	         13.99638576	          5.14637178	          0.25831366	         10.45489552	         20.27993975	
          3.01000000	        -15.53836047	         16.16598177	         -8.40472416	         11.94946294	         13.79280835	          5.17575515	          0.17415415	         10.62977190	         20.19210545	
          3.02000000	        -15.64883499	         15.97349462	         -8.61981303	         11.85429122	         13.59192914	          5.20511057	          0.08505281	         10.81589870	         20.10231892	
          3.03000000	        -15.76541466	         15.77909818	         -8.84321420	         11.75648792	         13.39385269	          5.23390208	         -0.01192655	         11.01345177	         20.00804443	
          3.04000000	        -15.88810922	         15.58305323	         -9.07451752	         11.65595657	         13.19949838	          5.26181934	         -0.11771545	         11.22279905	         19.90808515	
          3.05000000	        -16.01675555	         15.38565631	         -9.31314056	         11.55269987	         13.00958417	          5.28862120	         -0.23277214	         11.44444405	         19.80190588	
          3.06000000	        -16.15106576	         15.18726527	         -9.55835895	         11.44680007	         12.82474876	          5.31410167	         -0.35720616	         11.67888619	         19.68932447	
          3.07000000	        -16.29066812	         14.98827075	         -9.80933607	         11.33838015	         12.64559784	          5.33806638	         -0.49089175	         11.92656925	         19.57037684	
          3.08000000	        -16.43514616	         14.78907611	        -10.06516122	         11.22757454	         12.47274130	          5.36031631	         -0.63354134	         12.18784007	         19.44520351	
          3.09000000	        -16.58407975	         14.59006719	        -10.32490518	         11.11450143	         12.30679942	          5.38064140	         -0.78480667	         12.46294785	         19.31394086	
          3.10000000	        -16.73707594	         14.39159505	        -10.58766443	         10.99924597	         12.14840873	          5.39881755	         -0.94434869	         12.75204041	         19.17667076	
          3.11000000	        -16.89378365	         14.19396498	        -10.85258199	         10.88185108	         11.99822177	          5.41460587	         -1.11186984	         13.05516085	         19.03338742	
          3.12000000	        -17.05390574	         13.99743357	        -11.11885787	         10.76230937	         11.85692360	          5.42774730	         -1.28713068	         13.37222587	         18.88397470	
          3.13000000	        -17.21720540	         13.80220516	        -11.38576564	         10.64056386	         11.72522026	          5.43796772	         -1.46993205	         13.70303589	         18.72821665	
          3.14000000	        -17.38350327	         13.60843223	        -11.65265305	         10.51651213	         11.60382756	          5.44498281	         -1.66009464	         14.04728431	         18.56582088	
          3.15000000	        -17.55265890	         13.41622565	        -11.91891701	         10.39001794	         11.49346349	          5.44850270	         -1.85740402	         14.40455499	         18.39647228	
          3.16000000	        -17.72454580	         13.22567093	        -12.18396596	         10.26092599	         11.39484705	          5.44823502	         -2.06153724	         14.77430782	         18.21989877	
          3.17000000	        -17.89902419	         13.03684517	        -12.44718412	         10.12908027	         11.30868811	          5.44389186	         -2.27199780	         15.15587298	         18.03593739	
